<svg fill="#000000" xmlns="http://www.w3.org/2000/svg"  viewBox="0 0 50 50" width="50px" height="50px"><path d="M 25 0 C 22.800781 0 21 1.800781 21 4 C 21 5.011719 21.402344 5.917969 22.03125 6.625 C 21.269531 7.367188 19.878906 8.851563 18.8125 11.03125 C 18 10.085938 17.078125 9.5 16.375 9.125 C 16.769531 8.507813 17 7.78125 17 7 C 17 4.800781 15.199219 3 13 3 C 10.800781 3 9 4.800781 9 7 C 9 8.851563 10.28125 10.398438 12 10.84375 C 12.046875 13.324219 12.746094 15.414063 14.25 16.84375 C 15.804688 18.320313 18.089844 18.996094 20.96875 19 C 20.949219 19.707031 20.9375 20.378906 20.875 21 L 18.5 21 C 16.101563 21 14 22.714844 14 25 C 14 27.09375 15.769531 28.710938 17.90625 28.96875 C 17.039063 30.027344 16.109375 30.804688 15.25 31.625 C 14.296875 32.53125 13.417969 33.605469 13.125 35.03125 C 10.894531 35.140625 9 36.816406 9 39 C 9 40.378906 9.757813 41.566406 10.875 42.28125 C 9.585938 43.632813 8.597656 45.054688 8.1875 46.40625 C 7.9375 47.222656 7.882813 48.109375 8.34375 48.875 C 8.804688 49.640625 9.726563 50 10.71875 50 L 39.28125 50 C 40.273438 50 41.226563 49.640625 41.6875 48.875 C 42.148438 48.109375 42.0625 47.222656 41.8125 46.40625 C 41.398438 45.054688 40.417969 43.632813 39.125 42.28125 C 40.242188 41.566406 41 40.378906 41 39 C 41 36.816406 39.105469 35.140625 36.875 35.03125 C 36.582031 33.609375 35.699219 32.53125 34.75 31.625 C 33.890625 30.808594 32.960938 30.027344 32.09375 28.96875 C 34.230469 28.710938 36 27.09375 36 25 C 36 22.710938 33.894531 21 31.5 21 L 29.15625 21 C 29.09375 20.378906 29.050781 19.707031 29.03125 19 C 31.910156 18.996094 34.195313 18.320313 35.75 16.84375 C 37.253906 15.414063 37.953125 13.324219 38 10.84375 C 39.71875 10.398438 41 8.851563 41 7 C 41 4.800781 39.199219 3 37 3 C 34.800781 3 33 4.800781 33 7 C 33 7.78125 33.230469 8.507813 33.625 9.125 C 32.921875 9.5 32 10.085938 31.1875 11.03125 C 30.121094 8.851563 28.730469 7.367188 27.96875 6.625 C 28.597656 5.917969 29 5.011719 29 4 C 29 1.800781 27.199219 0 25 0 Z M 25 2 C 26.117188 2 27 2.882813 27 4 C 27 5.117188 26.117188 6 25 6 C 23.882813 6 23 5.117188 23 4 C 23 2.882813 23.882813 2 25 2 Z M 13 5 C 14.117188 5 15 5.882813 15 7 C 15 8.117188 14.117188 9 13 9 C 11.882813 9 11 8.117188 11 7 C 11 5.882813 11.882813 5 13 5 Z M 37 5 C 38.117188 5 39 5.882813 39 7 C 39 8.117188 38.117188 9 37 9 C 35.882813 9 35 8.117188 35 7 C 35 5.882813 35.882813 5 37 5 Z M 23.6875 7.75 C 24.097656 7.894531 24.542969 8 25 8 C 25.457031 8 25.902344 7.894531 26.3125 7.75 C 26.636719 8.011719 28.984375 10 30.0625 13.3125 C 30.191406 13.695313 30.539063 13.964844 30.941406 13.992188 C 31.347656 14.019531 31.726563 13.800781 31.90625 13.4375 C 33.078125 11.050781 35.21875 10.5625 35.21875 10.5625 C 35.46875 10.6875 35.722656 10.773438 36 10.84375 C 35.953125 12.941406 35.402344 14.398438 34.375 15.375 C 33.300781 16.394531 31.578125 17 29 17 L 28.21875 17 C 28.117188 16.972656 28.011719 16.960938 27.90625 16.96875 C 27.875 16.976563 27.84375 16.988281 27.8125 17 L 22.21875 17 C 22.117188 16.972656 22.011719 16.960938 21.90625 16.96875 C 21.875 16.976563 21.84375 16.988281 21.8125 17 L 21 17 C 18.421875 17 16.699219 16.394531 15.625 15.375 C 14.597656 14.398438 14.046875 12.941406 14 10.84375 C 14.277344 10.773438 14.53125 10.6875 14.78125 10.5625 C 14.78125 10.5625 16.921875 11.050781 18.09375 13.4375 C 18.273438 13.800781 18.652344 14.019531 19.058594 13.992188 C 19.460938 13.964844 19.808594 13.695313 19.9375 13.3125 C 21.015625 10 23.363281 8.011719 23.6875 7.75 Z M 22.96875 19 L 27.03125 19 C 27.046875 19.699219 27.066406 20.371094 27.125 21 L 22.84375 21 C 22.90625 20.371094 22.945313 19.699219 22.96875 19 Z M 18.5 23 L 31.5 23 C 32.96875 23 34 23.976563 34 25 C 34 26.023438 32.96875 27 31.5 27 L 18.5 27 C 17.03125 27 16 26.023438 16 25 C 16 23.976563 17.03125 23 18.5 23 Z M 20.34375 29 L 29.65625 29 C 30.902344 30.921875 32.347656 32.113281 33.375 33.09375 C 34.117188 33.796875 34.609375 34.320313 34.84375 35 L 15.15625 35 C 15.390625 34.324219 15.882813 33.800781 16.625 33.09375 C 17.65625 32.113281 19.097656 30.929688 20.34375 29 Z M 13.34375 37 L 36.65625 37 C 38.011719 37 39 37.945313 39 39 C 39 40.054688 38.007813 41 36.65625 41 L 13.34375 41 C 11.992188 41 11 40.054688 11 39 C 11 37.945313 11.992188 37 13.34375 37 Z M 13 42.96875 C 13.117188 42.976563 13.226563 43 13.34375 43 L 36.65625 43 C 36.773438 43 36.882813 42.976563 37 42.96875 C 38.488281 44.359375 39.59375 45.980469 39.90625 47 C 40.066406 47.515625 39.996094 47.796875 39.96875 47.84375 C 39.941406 47.890625 39.867188 48 39.28125 48 L 10.71875 48 C 10.132813 48 10.058594 47.890625 10.03125 47.84375 C 10.003906 47.796875 9.9375 47.515625 10.09375 47 C 10.402344 45.980469 11.515625 44.359375 13 42.96875 Z"/></svg>